<?xml version="1.0" encoding="UTF-8"?>
<svg xmlns="http://www.w3.org/2000/svg" width="500" height="500" viewBox="0 0 500 500">
  <g id="white-outline" fill="#FFFFFF">
    <path d="M 352 189 L 266 206 L 244 218 L 225 243 L 156 370 L 164 362 L 214 289 L 229 271 L 248 264 L 298 256 L 316 251 L 330 237 Z"/>
    <path d="M 405 158 L 395 158 L 395 347 L 389 358 L 383 361 L 178 361 L 171 371 L 383 371 L 397 365 L 405 352 Z"/>
    <path d="M 179 127 L 173 132 L 173 139 L 181 144 L 187 141 L 189 135 L 186 129 Z"/>
    <path d="M 153 127 L 147 132 L 147 139 L 155 144 L 161 141 L 163 134 L 160 129 Z"/>
    <path d="M 127 127 L 122 130 L 120 137 L 122 141 L 129 144 L 135 140 L 136 133 L 132 128 Z"/>
    <path d="M 266 97 L 116 97 L 104 103 L 98 110 L 95 118 L 94 347 L 98 359 L 106 367 L 112 370 L 125 371 L 130 361 L 116 361 L 112 359 L 105 350 L 105 120 L 107 115 L 112 110 L 120 107 L 257 107 Z"/>
    <path d="M 410 81 L 376 90 L 299 103 L 282 110 L 263 125 L 243 155 L 111 425 L 123 411 L 144 376 L 212 239 L 232 205 L 250 189 L 266 181 L 356 164 L 369 158 L 380 145 Z"/>
  </g>
  <g id="logo" fill="#24374E">
    <path d="M 352 189 L 267 206 L 251 213 L 241 221 L 227 240 L 157 369 L 178 342 L 220 280 L 229 271 L 251 263 L 306 254 L 319 249 L 329 238 Z"/>
    <path d="M 405 158 L 395 158 L 395 348 L 388 359 L 380 362 L 178 362 L 172 371 L 381 371 L 394 367 L 401 360 L 405 351 Z"/>
    <path d="M 177 128 L 173 133 L 173 138 L 178 143 L 184 143 L 188 138 L 188 132 L 184 128 Z"/>
    <path d="M 151 128 L 147 133 L 147 138 L 150 142 L 157 143 L 162 139 L 162 132 L 158 128 Z"/>
    <path d="M 125 128 L 121 132 L 121 138 L 125 143 L 131 143 L 134 141 L 136 133 L 131 128 Z"/>
    <path d="M 265 97 L 118 97 L 109 100 L 99 109 L 95 119 L 95 351 L 99 360 L 106 367 L 125 371 L 130 362 L 115 361 L 105 350 L 105 119 L 113 109 L 119 107 L 257 107 Z"/>
    <path d="M 409 81 L 382 89 L 297 104 L 275 115 L 258 131 L 232 177 L 111 424 L 122 412 L 142 379 L 200 262 L 231 206 L 244 193 L 263 182 L 355 164 L 367 159 L 379 146 Z"/>
  </g>
</svg>